<svg width="201" height="220" viewBox="0 0 201 220" fill="none" xmlns="http://www.w3.org/2000/svg">
<g clip-path="url(#clip0)">
<path d="M121.791 0C127.628 0.083732 133.464 0.352368 139.297 0.631471C145.007 1.0292 150.732 0.617529 156.446 0.509363C156.393 2.41425 156.477 4.32262 156.313 6.22401C156.19 8.18472 155.932 10.1908 156.463 12.1166C157.914 11.7119 159.345 11.2374 160.827 10.9723C163.198 10.1594 165.468 9.08134 167.814 8.20216C170.458 7.84979 172.759 6.03562 175.497 6.21006C176.368 7.84979 178.344 8.51615 178.997 10.3094C180.04 11.5514 181.459 12.5387 182.124 14.0843C184.372 16.0764 185.795 18.829 188.048 20.8176C188.663 22.1992 189.768 23.2668 190.87 24.2681C191.544 25.3217 192.093 26.5009 193.136 27.2684C194.031 27.9173 194.415 28.971 195.017 29.8467C196.146 30.827 197.136 31.9748 197.849 33.2971C198.741 34.3158 199.409 35.4985 200.157 36.6219C201.067 37.8081 200.85 39.392 201 40.791C200.692 43.3413 200.965 45.916 200.664 48.4664C199.734 58.7095 198.696 68.9421 197.703 79.1782C197.622 81.6937 197.744 84.2091 197.647 86.721C196.629 87.8618 195.244 88.6538 194.461 89.997C194.276 90.3912 193.87 90.5517 193.51 90.7401C191.912 91.5007 190.828 93.0287 189.146 93.6498C186.299 94.7173 183.781 96.6501 180.728 97.1351C177.371 98.2724 173.972 99.4516 170.419 99.7796C169.664 99.7517 168.563 100.013 168.188 99.1481C167.503 97.7631 166.293 96.6885 165.926 95.1534C164.915 93.6044 163.688 92.181 162.933 90.468C161.981 88.3747 160.145 86.8257 159.366 84.6452C158.603 83.5497 157.876 82.4298 157.173 81.2959C157.935 81.2366 158.799 81.4843 159.46 80.968C160.02 80.9436 160.586 80.9366 161.153 80.9296C161.953 81.4634 162.67 82.1472 163.097 83.0229C163.6 84.0974 164.751 84.5998 165.457 85.5104C166.104 86.1837 166.381 87.1641 167.209 87.6665C168.269 88.4375 169 89.533 169.828 90.5238C171.378 91.0611 172.161 89.1946 172.762 88.1235C173.909 86.8954 175.151 85.6046 175.605 83.9404C175.826 66.9744 175.518 49.9735 173.717 33.0877C173.409 29.2396 172.507 25.4508 172.444 21.5887C172.238 20.242 171.874 18.9197 171.773 17.5591C171.112 16.9765 170.301 16.2787 169.349 16.5439C167.482 16.9276 165.66 17.5731 163.733 17.4998C161.285 18.058 158.803 18.5569 156.47 19.5024C156.093 21.5887 156.285 23.7168 156.243 25.8276C156.183 33.154 156.39 40.4735 156.327 47.8035C156.288 58.5036 156.484 69.2003 156.411 79.9039C157.142 95.3872 158.313 110.846 159.394 126.308C159.582 128.178 159.589 130.055 159.555 131.932C159.61 132.574 158.988 132.965 158.68 133.446C157.694 131.978 156.774 130.446 156.215 128.758C155.463 126.657 153.952 124.941 153.243 122.823C152.47 120.723 151.148 118.898 150.211 116.878C149.962 136.743 150.291 156.619 150.018 176.488C148.581 175.877 147.959 174.426 147.168 173.201C146.637 170.581 144.514 168.655 143.731 166.126C143.231 164.587 142.08 163.384 141.44 161.908C141.259 165.969 140.724 170.016 140.675 174.084C140.8 177.817 140.297 181.526 140.059 185.245C139.356 194.103 138.643 202.961 137.741 211.801C137.293 214.526 137.922 217.394 136.796 220C135.891 216.117 135.387 212.15 134.604 208.239C134.254 206.774 134.492 205.256 134.188 203.791C133.233 198.649 132.345 193.492 131.376 188.35C131.152 187.115 131.313 185.845 131.062 184.613C130.086 179.307 129.1 174.004 128.142 168.697C128.194 166.021 127.47 163.433 127.033 160.816C126.369 157.223 125.697 153.633 125.029 150.043C124.889 148.773 124.98 147.485 124.694 146.233C123.837 141.673 122.977 137.11 122.13 132.546C121.637 130.589 121.893 128.538 121.396 126.577C121.98 127.617 122.777 128.545 123.781 129.208C124.833 129.801 125.071 131.13 126.068 131.796C127.061 132.445 127.879 133.296 128.491 134.312C128.988 134.343 129.187 134.106 129.093 133.596C128.806 130.101 127.974 126.647 128.054 123.123C127.19 116.651 126.145 110.208 125.071 103.771C124.833 102.557 125.05 101.304 124.788 100.094C123.774 94.351 122.76 88.5875 121.613 82.8833C118.088 82.1646 114.357 83.2217 110.975 84.3765C109.874 84.6522 108.915 85.336 107.786 85.4964C107.184 85.5906 106.6 85.8279 106.118 86.1977C105.67 87.1746 105.957 88.2979 105.884 89.3341C105.821 100.725 106.037 112.112 105.975 123.5C106.135 135.247 106.027 147 106.058 158.747C105.88 163.757 106.478 168.928 108.73 173.466C109.429 175.256 110.507 177.049 112.203 178.054C113.164 178.912 114.395 179.362 115.427 180.116C115.546 180.643 115.546 181.198 115.451 181.731C114.927 182.255 114.14 182.401 113.433 182.241C110.171 181.679 106.905 180.95 103.576 181.044C93.0394 179.809 82.3318 179.251 71.7745 180.605C71.0961 180.535 71.1765 179.792 71.0297 179.317C70.9108 178.647 70.3862 178.162 70.0296 177.618C71.4178 176.512 72.9075 175.546 74.4217 174.621C75.4428 173.522 76.4989 172.458 77.52 171.359C77.9501 170.121 78.6285 168.99 79.167 167.801C80.2056 164.769 81.0204 161.594 80.898 158.367C82.2793 144.342 82.1534 130.219 81.7058 116.149C81.5834 111.23 81.1918 106.325 80.87 101.423C79.5167 102.414 78.2159 103.492 76.8521 104.458C75.3414 104.734 74.2504 105.868 72.8656 106.429C71.5262 107.005 70.3163 107.895 68.8091 107.961C66.1305 109.119 63.3609 110.065 60.5599 110.867C59.2031 110.909 57.8847 111.205 56.5769 111.551C56.7552 127.966 56.8181 144.384 57.0734 160.799C56.9405 162.449 57.9651 163.795 58.6715 165.188C60.5669 166.157 61.8397 168.209 64.0148 168.614C64.2841 168.812 64.5534 169.018 64.8226 169.224C64.7981 169.793 64.7772 170.365 64.7457 170.937C59.8255 169.221 54.5801 168.889 49.4186 168.519C43.4669 168.624 37.5256 168.156 31.5738 168.076C26.832 167.944 22.0866 167.87 17.3378 167.891C17.3028 167.078 17.2504 166.269 17.2189 165.46C18.9324 165.191 20.4011 164.221 21.7964 163.251C23.7686 162.037 25.6885 160.603 26.9369 158.618C27.7831 157.013 28.6364 155.342 28.7797 153.507C29.5386 147.259 29.3882 140.954 29.5631 134.678C29.5456 127.795 29.5036 120.915 29.3148 114.035C27.367 113.072 25.4157 112.105 23.5378 111.024C22.4888 110.965 21.5621 110.448 20.6913 109.908C19.5688 109.203 18.3204 108.728 17.1909 108.034C16.3831 107.724 15.4879 107.608 14.792 107.054C13.6275 106.213 12.2917 105.644 11.1377 104.793C9.41374 103.889 8.39264 102.18 7.09178 100.816C6.40288 99.9819 5.80141 99.0818 5.10202 98.2515C4.42362 96.2943 2.78356 94.8848 2.0492 92.959C1.46172 91.2843 0.493067 89.7667 0 88.0537C2.5038 86.7524 5.16847 85.5139 8.02546 85.3848C11.3161 84.6277 14.6277 83.9544 17.9707 83.4729C18.9953 83.4346 18.6841 84.6208 18.2959 85.1615C17.058 85.8732 15.7362 86.4489 14.5682 87.2827C13.6765 87.9246 12.7183 88.5456 11.6098 88.7166C9.89282 89.8993 8.04644 90.8831 6.43086 92.2193C7.15123 92.8822 7.85411 93.566 8.48705 94.3161C9.18644 95.1709 10.3964 95.272 11.1517 96.0535C13.0051 97.8503 15.5544 98.6038 17.6175 100.104C18.5232 100.756 19.5269 101.29 20.6004 101.615C23.3805 102.686 25.8388 105.302 29.028 104.748C29.119 98.4364 28.8777 92.1286 28.6958 85.8209C28.2587 72.103 27.7097 58.3885 27.1537 44.6775C26.9229 40.941 27.0732 37.1975 27.0208 33.461C27.0348 32.4144 26.4823 31.4899 25.9612 30.6212C24.4925 27.8545 21.6705 26.1241 18.859 24.9554C19.0863 24.1041 19.7751 23.3889 20.6948 23.3784C26.5242 23.7901 32.3781 23.6505 38.218 23.5459C45.4321 23.3959 52.6393 23.0854 59.85 22.8411C59.8115 23.5912 59.7486 24.3378 59.6612 25.0844C59.3464 25.2345 59.0317 25.3845 58.717 25.5345C57.7903 26.7277 56.6363 27.7743 55.9404 29.1245C54.9298 31.0259 55.5348 33.2133 55.3075 35.2543C55.1571 43.9693 55.4334 52.6808 55.3529 61.3958C55.2935 72.103 55.8495 82.7996 56.2307 93.4963C56.3635 95.9733 56.423 98.4573 56.6888 100.927C58.3673 100.537 59.9409 99.797 61.4831 99.0469C62.3993 98.2689 63.7211 98.4085 64.6408 97.627C65.7073 96.7373 67.0467 96.2559 68.1062 95.3558C70.4282 94.7941 71.7955 92.5264 74.0895 91.874C75.3729 90.7645 76.8276 89.8714 78.125 88.7794C79.1356 88.2979 80.0028 87.5827 80.8666 86.885C80.898 78.3828 80.87 69.8806 80.884 61.3784C80.5483 48.3338 79.8419 35.2962 78.7404 22.2934C78.6145 21.1142 78.0235 20.0641 77.6424 18.9581C76.6492 18.4069 75.7295 17.7336 74.7014 17.2416C74.3587 16.5055 73.1803 15.41 74.2259 14.7646C78.1389 15.6403 82.1464 15.2356 86.1154 15.4449C91.4902 15.731 96.8615 15.3053 102.236 15.3402C105.377 15.1902 108.499 14.7018 111.64 14.5867C111.8 14.6983 112.126 14.9216 112.29 15.0332C111.395 16.1706 110.174 17.0602 109.555 18.4104C108.475 20.9258 107.031 23.2703 106.16 25.8799C105.202 32.5644 105.331 39.3432 105.275 46.08C105.226 52.7087 105.338 59.334 105.38 65.9627C105.534 70.2504 105.415 74.5451 105.691 78.8294C109.398 77.9606 113.105 76.9524 116.92 76.7047C119.756 76.0418 122.952 76.1988 125.341 78.0304C126.169 78.1665 126.977 78.4421 127.652 78.9549C128.925 79.9283 130.341 80.6854 131.743 81.4494C131.499 78.8293 131.114 76.2232 131.215 73.5857C130.453 66.2208 129.327 58.9013 128.222 51.5819C127.995 50.2631 128.166 48.9164 128.009 47.5942C127.012 40.8608 126.04 34.1274 125.064 27.394C124.833 26.0543 125.04 24.6832 124.826 23.3435C123.942 17.1928 123.04 11.049 122.155 4.89827C121.861 3.28296 121.732 1.63973 121.791 0H121.791Z" fill="url(#paint0_linear)"/>
</g>
<defs>
<linearGradient id="paint0_linear" x1="100.5" y1="0" x2="100.5" y2="220" gradientUnits="userSpaceOnUse">
<stop stop-color="#B78628"/>
<stop offset="1" stop-color="#DBA514"/>
</linearGradient>
<clipPath id="clip0">
<rect width="201" height="220" fill="white"/>
</clipPath>
</defs>
</svg>
